<?xml version="1.0" standalone="no"?>
<!DOCTYPE svg PUBLIC "-//W3C//DTD SVG 20010904//EN"
 "http://www.w3.org/TR/2001/REC-SVG-20010904/DTD/svg10.dtd">
<svg version="1.0" xmlns="http://www.w3.org/2000/svg"
 width="400.000000pt" height="400.000000pt" viewBox="0 0 400.000000 400.000000"
 preserveAspectRatio="xMidYMid meet">
<metadata>
Created by potrace 1.14, written by Peter Selinger 2001-2017
</metadata>
<g transform="translate(0.000000,400.000000) scale(0.100000,-0.100000)"
fill="#000000" stroke="none">
<path d="M1899 3977 c-262 -108 -716 -603 -1044 -1138 -219 -358 -361 -683
-427 -979 -32 -146 -32 -414 1 -568 92 -432 328 -786 686 -1027 92 -62 290
-157 392 -189 185 -57 272 -70 493 -70 174 0 221 4 308 22 275 60 505 169 715
340 217 176 416 471 501 739 55 175 69 274 70 473 0 169 -2 195 -28 304 -50
212 -133 427 -260 671 -379 729 -1029 1446 -1309 1445 -23 0 -67 -11 -98 -23z
m291 -1271 c332 -50 567 -213 704 -486 81 -161 116 -327 116 -544 0 -558 -254
-911 -740 -1028 -78 -19 -124 -21 -552 -25 l-468 -5 0 186 0 185 433 4 c379 3
440 6 497 22 200 55 311 170 372 382 20 69 23 101 23 273 0 174 -2 204 -23
275 -61 211 -173 325 -377 381 -44 12 -119 18 -277 21 l-218 5 0 -536 0 -536
-215 0 -215 0 0 720 0 720 423 0 c315 0 446 -4 517 -14z"/>
</g>
</svg>
