<?xml version="1.0" standalone="no"?>
<!DOCTYPE svg PUBLIC "-//W3C//DTD SVG 20010904//EN"
 "http://www.w3.org/TR/2001/REC-SVG-20010904/DTD/svg10.dtd">
<svg version="1.0" xmlns="http://www.w3.org/2000/svg"
 width="400.000000pt" height="400.000000pt" viewBox="0 0 400.000000 400.000000"
 preserveAspectRatio="xMidYMid meet">

<g transform="translate(0.000000,400.000000) scale(0.100000,-0.100000)"
fill="currentColor" stroke="none">
<path d="M1899 3977 c-246 -104 -648 -527 -972 -1023 -256 -392 -426 -764
-500 -1094 -31 -137 -30 -430 1 -574 49 -223 143 -439 265 -613 79 -113 267
-301 380 -380 173 -122 389 -215 614 -265 84 -19 128 -22 313 -22 185 0 229 3
313 22 225 50 441 143 614 265 113 79 301 267 380 380 122 174 216 390 265
613 31 144 32 437 1 574 -107 475 -425 1059 -864 1585 -117 141 -329 349 -428
423 -171 126 -272 155 -382 109z m291 -1271 c332 -50 567 -213 704 -486 81
-161 116 -327 116 -544 0 -557 -254 -911 -740 -1028 -78 -19 -124 -21 -552
-25 l-468 -5 0 186 0 185 433 4 c379 3 440 6 497 22 200 55 311 170 372 382
20 69 23 101 23 273 0 173 -3 204 -23 273 -62 215 -172 326 -377 383 -44 12
-119 18 -277 21 l-218 5 0 -536 0 -536 -215 0 -215 0 0 720 0 720 423 0 c315
0 446 -4 517 -14z"/>
</g>
</svg>
