<svg xmlns="http://www.w3.org/2000/svg" width="533.333" height="533.333" version="1.0" viewBox="0 0 400 400"><path fill="currentColor" d="M189.9 2.3C165.3 12.7 125.1 55 92.7 104.6 67.1 143.8 50.1 181 42.7 214c-3.1 13.7-3 43 .1 57.4 4.9 22.3 14.3 43.9 26.5 61.3 7.9 11.3 26.7 30.1 38 38 17.3 12.2 38.9 21.5 61.4 26.5 8.4 1.9 12.8 2.2 31.3 2.2s22.9-.3 31.3-2.2c22.5-5 44.1-14.3 61.4-26.5 11.3-7.9 30.1-26.7 38-38 12.2-17.4 21.6-39 26.5-61.3 3.1-14.4 3.2-43.7.1-57.4-10.7-47.5-42.5-105.9-86.4-158.5-11.7-14.1-32.9-34.9-42.8-42.3C211 .6 200.9-2.3 189.9 2.3M219 129.4c33.2 5 56.7 21.3 70.4 48.6 8.1 16.1 11.6 32.7 11.6 54.4 0 55.7-25.4 91.1-74 102.8-7.8 1.9-12.4 2.1-55.2 2.5l-46.8.5v-37.1l43.3-.4c37.9-.3 44-.6 49.7-2.2 20-5.5 31.1-17 37.2-38.2 2-6.9 2.3-10.1 2.3-27.3 0-17.3-.3-20.4-2.3-27.3-6.2-21.5-17.2-32.6-37.7-38.3-4.4-1.2-11.9-1.8-27.7-2.1l-21.8-.5V272h-43V128h42.3c31.5 0 44.6.4 51.7 1.4"/></svg>